<svg id="Icons" xmlns="http://www.w3.org/2000/svg" viewBox="0 0 115 115"><defs><style>.cls-1,.cls-2{fill:none;stroke:#e6edf2;stroke-width:6px;}.cls-1{stroke-linecap:round;stroke-linejoin:round;}.cls-2{stroke-miterlimit:10;}</style></defs><title>remove_dupe_regrow_seed_vf</title><path class="cls-1" d="M58.29,68.5v-24c-.1-.15-.32-.46-.61-.85-1.81-2.46-10.33-14-23.39-15.15a23.43,23.43,0,0,0-4,0,11.1,11.1,0,0,0,0,7c2.54,7,13.83,11.07,28,9"/><path class="cls-1" d="M57.29,68.5v-24l.61-.85c1.81-2.46,10.33-14,23.39-15.15a23.45,23.45,0,0,1,4,0,11,11,0,0,1,0,7c-2.54,7-13.82,11.07-28,9"/><path class="cls-2" d="M57.29,67.5l-9,9a6.27,6.27,0,0,0-1.14,2.88,5.91,5.91,0,0,0,.14,2.12,5.55,5.55,0,0,0,1,2c.15.13,3.53,3.08,6,5a4.94,4.94,0,0,0,2,1,4.58,4.58,0,0,0,2,0,5,5,0,0,0,2-1c2.21-1.69,4-3.2,5-4a5.78,5.78,0,0,0,2-3,5.7,5.7,0,0,0-1-5l-7-8Z"/></svg>